# xmcd
#
# Track frame offsets: 
#        150
#        510
#        19692
#        47200
#        60700
#        75045
#        91792
#        115652
#        142435
#        163575
#        195270
#        214722
#        232112
#        261017
#        276385
#        301147
#        316987
#
# Disc length: 4740 seconds
#
# Revision: 2
# Processed by: cddbd v1.5.2PL0 Copyright (c) Steve Scherf et al.
# Submitted via: ExactAudioCopy v1.1
#
DISCID=da128211
DTITLE=Bobby Womack - The Womack Live - Safety Zone
DYEAR=2004
DGENRE=R&B
TTITLE0=Intro
TTITLE1=Oh How I Miss You Baby
TTITLE2=California Dreamin'
TTITLE3=Something
TTITLE4=Everybody's Talkin'
TTITLE5=Bobby Womack and Percy Mayfield - Medley: Laughin' and Clownin' To
TTITLE5=Live The Past
TTITLE6=I'm A Midnight Mover
TTITLE7=The Preacher
TTITLE8=More Than I Can Stand
TTITLE9=Everything's Gonna Be Alright
TTITLE10=I Wish It Would Rain
TTITLE11=Trust Me
TTITLE12=Where There's A Will, There's A Way
TTITLE13=Love Ain't Something You Can Get For Free
TTITLE14=Something You Got
TTITLE15=Daylight
TTITLE16=I Feel A Groove Comin' On
EXTD=
EXTT0=
EXTT1=
EXTT2=
EXTT3=
EXTT4=
EXTT5=
EXTT6=
EXTT7=
EXTT8=
EXTT9=
EXTT10=
EXTT11=
EXTT12=
EXTT13=
EXTT14=
EXTT15=
EXTT16=
PLAYORDER=
